<?xml version="1.0" encoding="utf-8"?>
<!-- Generator: Adobe Illustrator 16.2.0, SVG Export Plug-In . SVG Version: 6.00 Build 0)  -->
<!DOCTYPE svg PUBLIC "-//W3C//DTD SVG 1.1//EN" "http://www.w3.org/Graphics/SVG/1.1/DTD/svg11.dtd">
<svg version="1.1" id="icon" xmlns="http://www.w3.org/2000/svg" xmlns:xlink="http://www.w3.org/1999/xlink" x="0px" y="0px"
	 width="150px" height="150px" viewBox="0 0 150 150" enable-background="new 0 0 150 150" xml:space="preserve">
<g>
	<path fill-rule="evenodd" clip-rule="evenodd" fill="#E6E6E6" d="M89.161,96.223l8.394-9.258c-0.72-0.732-1.368-1.432-1.913-2.085
		C59.782,41.953,18.107,23.714,5,6.111c2.639,34.017,39.095,70.574,64.21,92C74.385,93.956,83.427,93.14,89.161,96.223z"/>
	<path fill-rule="evenodd" clip-rule="evenodd" fill="#E6E6E6" d="M142.267,127.718c-11.555-14.134-31.346-28.42-41.824-37.983
		l-8.158,8.996c0.154,0.185,0.323,0.355,0.462,0.552c8.848,12.449,9.308,18.313,19.898,22.949c7.813,3.418,9.797,6.666,12.094,15.33
		c2.135,8.057,11.715,6.873,15.974,4.803C146.443,139.576,145.87,132.127,142.267,127.718z"/>
</g>
</svg>
